<svg xmlns="http://www.w3.org/2000/svg" xmlns:xlink="http://www.w3.org/1999/xlink" width="567.707" height="296.317" viewBox="0 0 567.707 296.317">
  <defs>
    <clipPath id="clip-path">
      <rect id="Rectangle_19608" data-name="Rectangle 19608" width="567.707" height="296.317" transform="translate(0 0)" fill="#fff"/>
    </clipPath>
    <clipPath id="clip-path-2">
      <path id="Path_53959" data-name="Path 53959" d="M1873.847,982.808c2.089-8.843,3.171-17.89-1.561-23.914-2.137-2.72-5.945-4.615-9.061-5.961-6.078-2.627-12.292-6.159-18.8-7.3-6.86-1.207-14.489-1.951-21.326-.225a50.629,50.629,0,0,0-12.288,5.315c-3.369,1.9-7.5,3.536-9.139,7.071a240.506,240.506,0,0,0-10.4,26.48c-2.442,7.51-5.121,15.381-1.274,22.992,1.247,2.466,3.057,4.577,4.483,6.933a16.874,16.874,0,0,1,2.389,8.118c.475,6.908.29,13.836.271,20.754a13.188,13.188,0,0,0,.893,5.859c1.721,3.534,6.4,3.583,9.766,3.577l33.312-.057a57.048,57.048,0,0,1,12.487,1.449c3.65.75,6.784-1.092,8.535-4.488,1.658-3.215,1.784-6.97,1.962-10.583a228.513,228.513,0,0,1,5.949-41.74C1870.969,993.208,1872.589,988.138,1873.847,982.808Z" transform="translate(-1788.066 -944.388)" fill="#ffc73c"/>
    </clipPath>
  </defs>
  <g id="Group_45468" data-name="Group 45468" transform="translate(-219.677 -184.96)">
    <path id="Path_53986" data-name="Path 53986" d="M0,0H462.57V274.524H4.536Z" transform="translate(324.814 184.96)" fill="#fff"/>
    <g id="Group_45351" data-name="Group 45351" transform="translate(219.677 184.96)" clip-path="url(#clip-path)">
      <g id="Group_45350" data-name="Group 45350" transform="translate(122.66 -12.28)">
        <path id="Path_53949" data-name="Path 53949" d="M1334.071,327.55q.053-22.911.083-45.822c.042-27.835.085-55.68-1.008-83.494-.654-16.629-1.792-33.6-8.126-48.987a18.518,18.518,0,0,0-3.775-6.3,18.188,18.188,0,0,0-6.474-3.718c-14.008-5.338-29.333-5.773-44.32-6.143l-92.948-2.3c-19.2-.475-39.949-.491-55.48,10.8-12.738,9.262-19.491,24.4-28.443,37.36-5.536,8.014-15.653,21.6-25.529,23.76-5.29,1.156-10.778.633-16.193.637a82.775,82.775,0,0,0-34.688,7.683c-13.235,6.151-25.492,17.1-27.877,31.494-1.707,10.3,1.823,21.125-.93,31.2-3.148,11.523-13.681,19.328-24,25.348s-21.572,11.6-28.22,21.525c-4,5.967-6.439,14.127-7.47,21.206-1.21,8.3,1.154,16.3-2.59,24.342-2.547,5.469-7.094,9.727-11.76,13.552-7.085,5.808-14.765,11.024-20.732,17.977s-10.122,16.181-8.462,25.191c1.307,7.092,6.172,13.264,12.366,16.958,7.536,4.493,17.5,5.583,25.8,8.418,11.182,3.819,23.924,4.275,35.621,4.752,47.193,1.924,94.417-3.054,141.591-.161,21.973,1.347,43.192,2.883,64.816,7.027,23.89,4.579,47.666,9.727,71.436,14.887,15.887,3.449,32.052,7.055,48.245,5.616s32.737-8.8,41.111-22.732c7.049-11.729,7.395-26.152,7.513-39.836Q1334.012,372.673,1334.071,327.55Z" transform="translate(-869.267 -130.642)" fill="#dff3fd"/>
        <path id="Path_53950" data-name="Path 53950" d="M2095.064,397.981c.149-.9-1.044-2.719-2.345-2.69-.518.012-1.024.146-1.541.121a3.353,3.353,0,0,1-2.622-2.027,3.027,3.027,0,0,0-2.93-1.675c-1.932.324-2.906,2.874-5.1.96-1.438-1.253-1.546-3.005-3.174-4.221a5.31,5.31,0,0,0-4.433-.867c-1.956.6-2.683,2.54-4.765,2.878-2.306.374-3.965-1.381-4.7-2.646-.893-1.536-1.225-3.2-1.99-4.758-.708-1.446-2.133-3.384-4.685-3.342-2.158.035-3.109,1.4-4.168,2.486-1.377,1.41-4.24,6.475-7.451,5.864-1.252-.238-1.877-1.233-3.007-1.678a5.133,5.133,0,0,0-5.225,1.506c-1.094,1.238-1.528,2.732-2.764,3.9a2.857,2.857,0,0,1-1.21.726c-1.727.473-3.335-.981-5.184-1.089a4.308,4.308,0,0,0-3.193,1.257,15.869,15.869,0,0,0-1.7,2.4,1.794,1.794,0,0,1-.616.6c-.811.435-1.952.068-2.946-.1-2.455-.423-5.244.7-5.937,2.4Z" transform="translate(-1742.721 -323.401)" fill="#fff"/>
        <g id="Group_45335" data-name="Group 45335" transform="translate(95.835 104.483)" style="mix-blend-mode: multiply;isolation: isolate">
          <g id="Group_45331" data-name="Group 45331" transform="translate(149.337)">
            <g id="Group_45329" data-name="Group 45329" transform="translate(113.045 38.878)">
              <rect id="Rectangle_19566" data-name="Rectangle 19566" width="25.468" height="116.656" transform="translate(63.901 133.762) rotate(180)" fill="#dff3fd"/>
              <rect id="Rectangle_19567" data-name="Rectangle 19567" width="38.432" height="80.854" transform="translate(0 52.908)" fill="#dff3fd"/>
              <rect id="Rectangle_19568" data-name="Rectangle 19568" width="38.432" height="56.784" transform="translate(48.398 76.978)" fill="#dff3fd"/>
              <rect id="Rectangle_19569" data-name="Rectangle 19569" width="20.682" height="5.702" transform="translate(59.115 17.106) rotate(180)" fill="#dff3fd"/>
              <rect id="Rectangle_19570" data-name="Rectangle 19570" width="16.922" height="5.702" transform="translate(55.354 11.404) rotate(180)" fill="#dff3fd"/>
              <rect id="Rectangle_19571" data-name="Rectangle 19571" width="13.332" height="5.702" transform="translate(51.765 5.702) rotate(180)" fill="#dff3fd"/>
            </g>
            <g id="Group_45330" data-name="Group 45330" transform="translate(0)">
              <rect id="Rectangle_19572" data-name="Rectangle 19572" width="25.468" height="116.656" transform="translate(76.405 172.64) rotate(180)" fill="#dff3fd"/>
              <rect id="Rectangle_19573" data-name="Rectangle 19573" width="25.468" height="154.424" transform="translate(146.073 172.64) rotate(180)" fill="#dff3fd"/>
              <rect id="Rectangle_19574" data-name="Rectangle 19574" width="50.937" height="45.142" transform="translate(50.937 172.64) rotate(180)" fill="#dff3fd"/>
              <rect id="Rectangle_19575" data-name="Rectangle 19575" width="51.167" height="172.64" transform="translate(114.837 172.64) rotate(180)" fill="#dff3fd"/>
              <rect id="Rectangle_19576" data-name="Rectangle 19576" width="20.682" height="5.702" transform="translate(71.619 55.985) rotate(180)" fill="#dff3fd"/>
              <rect id="Rectangle_19577" data-name="Rectangle 19577" width="16.922" height="5.702" transform="translate(67.858 50.282) rotate(180)" fill="#dff3fd"/>
              <rect id="Rectangle_19578" data-name="Rectangle 19578" width="13.332" height="5.702" transform="translate(64.269 44.58) rotate(180)" fill="#dff3fd"/>
            </g>
          </g>
          <g id="Group_45334" data-name="Group 45334" transform="translate(0 29.824)">
            <g id="Group_45332" data-name="Group 45332" transform="translate(113.045)">
              <rect id="Rectangle_19579" data-name="Rectangle 19579" width="25.468" height="116.656" transform="translate(63.901 142.817) rotate(180)" fill="#dff3fd"/>
              <rect id="Rectangle_19580" data-name="Rectangle 19580" width="25.468" height="96.936" transform="translate(63.901 45.881)" fill="#dff3fd"/>
              <rect id="Rectangle_19581" data-name="Rectangle 19581" width="38.432" height="142.817" fill="#dff3fd"/>
              <rect id="Rectangle_19582" data-name="Rectangle 19582" width="20.682" height="5.702" transform="translate(59.115 26.161) rotate(180)" fill="#dff3fd"/>
              <rect id="Rectangle_19583" data-name="Rectangle 19583" width="16.922" height="5.702" transform="translate(55.354 20.459) rotate(180)" fill="#dff3fd"/>
              <rect id="Rectangle_19584" data-name="Rectangle 19584" width="13.332" height="5.702" transform="translate(51.765 14.757) rotate(180)" fill="#dff3fd"/>
            </g>
            <g id="Group_45333" data-name="Group 45333" transform="translate(0 9.054)">
              <rect id="Rectangle_19585" data-name="Rectangle 19585" width="25.468" height="116.656" transform="translate(76.405 133.762) rotate(180)" fill="#dff3fd"/>
              <rect id="Rectangle_19586" data-name="Rectangle 19586" width="25.468" height="96.936" transform="translate(50.937 133.762) rotate(180)" fill="#dff3fd"/>
              <rect id="Rectangle_19587" data-name="Rectangle 19587" width="25.468" height="113.113" transform="translate(107.869 133.762) rotate(180)" fill="#dff3fd"/>
              <rect id="Rectangle_19588" data-name="Rectangle 19588" width="25.468" height="56.312" transform="translate(25.468 133.762) rotate(180)" fill="#dff3fd"/>
              <rect id="Rectangle_19589" data-name="Rectangle 19589" width="51.166" height="85.175" transform="translate(114.837 133.762) rotate(180)" fill="#dff3fd"/>
              <rect id="Rectangle_19590" data-name="Rectangle 19590" width="20.682" height="5.702" transform="translate(71.619 17.106) rotate(180)" fill="#dff3fd"/>
              <rect id="Rectangle_19591" data-name="Rectangle 19591" width="20.682" height="5.702" transform="translate(44.099 114.755) rotate(180)" fill="#dff3fd"/>
              <rect id="Rectangle_19592" data-name="Rectangle 19592" width="16.922" height="5.702" transform="translate(67.858 11.404) rotate(180)" fill="#dff3fd"/>
              <rect id="Rectangle_19593" data-name="Rectangle 19593" width="13.332" height="5.702" transform="translate(64.269 5.702) rotate(180)" fill="#dff3fd"/>
            </g>
            <rect id="Rectangle_19594" data-name="Rectangle 19594" width="33.482" height="5.702" transform="translate(194.375 62.512) rotate(180)" fill="#dff3fd"/>
            <rect id="Rectangle_19595" data-name="Rectangle 19595" width="33.482" height="5.702" transform="translate(194.375 82.944) rotate(180)" fill="#dff3fd"/>
            <rect id="Rectangle_19596" data-name="Rectangle 19596" width="33.482" height="5.702" transform="translate(194.375 103.377) rotate(180)" fill="#dff3fd"/>
            <rect id="Rectangle_19597" data-name="Rectangle 19597" width="33.482" height="5.702" transform="translate(66.046 103.377) rotate(180)" fill="#dff3fd"/>
            <rect id="Rectangle_19598" data-name="Rectangle 19598" width="33.482" height="5.702" transform="translate(66.046 123.81) rotate(180)" fill="#dff3fd"/>
          </g>
        </g>
        <path id="Path_53951" data-name="Path 53951" d="M1876.787,715.784c-8.895,3.147-19.622,2.825-27.714-2.366-7.955-5.1-15.2-8.788-24.99-8.609-8.746.159-15.979,4.887-24.45,5.893-6.718.8-13.543-2.131-18.413-6.828-4.753-4.585-7.91-11.576-5.843-17.849,1.082-3.284,3.448-5.994,4.8-9.178,3.113-7.342-5.083-11.772-3.045-19.5,1.734-6.573,8.946-11.262,8.839-18.059-.079-4.976-3.931-8.832-5.287-13.435a18.267,18.267,0,0,1,1.348-14.089,16.834,16.834,0,0,1,7.926-7.077c2.966-1.263,6.278-1.287,8.572-3.879,4.087-4.618,5.586-9.624,11.194-13,4.747-2.859,11.016-3.04,16.462-2.541,12.1,1.109,23.848,7.5,30.664,17.67,2.416,3.605,4.159,7.295,4.22,11.58.066,4.684.064,9.4,2.935,13.378,2.41,3.344,6.278,5.3,10.113,6.809s7.855,2.73,11.222,5.107,6.041,6.255,5.648,10.358c-.329,3.434-2.706,6.418-3.022,9.853-.575,6.246,5.442,10.783,9.152,15.841a24.61,24.61,0,0,1,2.145,24.959c-4.5,9.055-12.678,11.1-21.246,14.5Q1877.406,715.565,1876.787,715.784Z" transform="translate(-1558.03 -482.316)" fill="#0b2d4e"/>
        <g id="Group_45336" data-name="Group 45336" transform="translate(254.09 114.025)">
          <path id="Path_53952" data-name="Path 53952" d="M1940.1,637.658a20.988,20.988,0,0,1,9.756-2.641,36.319,36.319,0,0,1,10.134,1.131,31.217,31.217,0,0,1,16.9,11.055,27.933,27.933,0,0,1,4.652,9.156,35.23,35.23,0,0,1,1.118,10.206c-.034,3.41-.276,6.8-.164,10.156a18.258,18.258,0,0,0,.783,4.882,7.665,7.665,0,0,0,2.642,3.909,9.2,9.2,0,0,0,4.521,1.558c1.644.195,3.36.2,5.073.434a23.113,23.113,0,0,1,9.79,3.207,7.854,7.854,0,0,1,3.477,9.294,36.491,36.491,0,0,1-2.165,4.663,14.856,14.856,0,0,0-1.263,4.772,22.241,22.241,0,0,0,1.718,9.792,91.394,91.394,0,0,1,3.363,9.633,20.541,20.541,0,0,1,.613,5.093,16.034,16.034,0,0,1-.892,5.039,17.24,17.24,0,0,1-5.937,8.131,16.769,16.769,0,0,0,5.756-18.147,92.845,92.845,0,0,0-3.477-9.534,22.9,22.9,0,0,1-1.887-10.07,15.624,15.624,0,0,1,1.265-5.041,37.753,37.753,0,0,0,2.1-4.566,7,7,0,0,0-3.163-8.324,22.268,22.268,0,0,0-9.411-3.02c-1.654-.216-3.343-.216-5.072-.411a10.106,10.106,0,0,1-4.988-1.723,8.621,8.621,0,0,1-2.964-4.392,19.145,19.145,0,0,1-.808-5.142c-.1-3.434.16-6.825.207-10.2a34.391,34.391,0,0,0-1.043-9.968,28.146,28.146,0,0,0-4.438-8.935,30.67,30.67,0,0,0-16.425-11.047,35.96,35.96,0,0,0-10.007-1.352A20.87,20.87,0,0,0,1940.1,637.658Z" transform="translate(-1940.103 -634.994)" fill="#73b8d4"/>
        </g>
        <path id="Path_53953" data-name="Path 53953" d="M1203.992,357.064c.15-.909-1.052-2.741-2.365-2.712-.522.012-1.032.147-1.553.122a3.381,3.381,0,0,1-2.644-2.044,3.052,3.052,0,0,0-2.954-1.689c-1.948.327-2.93,2.9-5.145.968-1.45-1.264-1.559-3.03-3.2-4.256a5.355,5.355,0,0,0-4.47-.875c-1.972.606-2.705,2.561-4.8,2.9-2.325.377-4-1.392-4.74-2.668-.9-1.548-1.235-3.221-2.006-4.8-.714-1.458-2.15-3.412-4.724-3.369-2.175.036-3.134,1.413-4.2,2.507-1.389,1.422-4.276,6.528-7.512,5.913-1.262-.24-1.893-1.243-3.032-1.692a5.176,5.176,0,0,0-5.268,1.518c-1.1,1.248-1.54,2.754-2.787,3.935a2.884,2.884,0,0,1-1.22.732c-1.741.476-3.362-.989-5.226-1.1a4.345,4.345,0,0,0-3.22,1.267,16.023,16.023,0,0,0-1.709,2.417,1.807,1.807,0,0,1-.621.606c-.818.438-1.969.069-2.97-.1-2.476-.426-5.287.71-5.986,2.419Z" transform="translate(-1052.586 -291.618)" fill="#dff3fd"/>
        <path id="Path_53954" data-name="Path 53954" d="M1899.594,762.774c.316,7.675-1.464,13.44-8.483,17.237-5.591,3.024-12.285,4.015-18.455,4.167-10.348.255-21.877-2.413-29.618-9.682-1.4-1.319-2.753-2.936-2.854-4.86-.093-1.749.87-3.4.955-5.147.143-2.951-2.151-5.395-3.177-8.166-1.355-3.659-.434-7.744.783-11.452s2.74-7.45,2.557-11.348c-.237-5.056-3.275-9.47-5.708-13.908s-4.346-9.838-2.268-14.453a10.332,10.332,0,0,1,7.974-5.75c3.526-.391,6.694,3.638,8.953,5.858a55.349,55.349,0,0,0,10.069,7.831c5.038,3.057,10.57,5.313,15.309,8.816,2.868,2.12,5.944,5.03,7.313,8.408,1.543,3.806-1.159,7.49,2.108,10.99,2.107,2.258,5.344,3.026,7.892,4.772C1898.4,749.825,1899.345,756.714,1899.594,762.774Z" transform="translate(-1602.691 -570.803)" fill="#061f33"/>
        <path id="Path_53955" data-name="Path 53955" d="M1716.683,1029.086c7.265-11.2,11.786-24.937,5.473-37.578-.64-1.281-1.409-2.679-2.768-3.131-2.923-.972-6.887.073-9.428,1.564-8.815,5.172-14.21,14.9-19.162,23.565-5.145,9-9.614,18.362-14.784,27.345-2.094,3.638-4.209,7.325-5.333,11.37a17.987,17.987,0,0,0,.251,11.066c5.8,14.987,21.764-3.371,26.622-8.917A221.759,221.759,0,0,0,1716.683,1029.086Z" transform="translate(-1476.924 -794.166)" fill="#efb126"/>
        <g id="Group_45338" data-name="Group 45338" transform="translate(219.717 183.974)">
          <path id="Path_53956" data-name="Path 53956" d="M1873.847,982.808c2.089-8.843,3.171-17.89-1.561-23.914-2.137-2.72-5.945-4.615-9.061-5.961-6.078-2.627-12.292-6.159-18.8-7.3-6.86-1.207-14.489-1.951-21.326-.225a50.629,50.629,0,0,0-12.288,5.315c-3.369,1.9-7.5,3.536-9.139,7.071a240.506,240.506,0,0,0-10.4,26.48c-2.442,7.51-5.121,15.381-1.274,22.992,1.247,2.466,3.057,4.577,4.483,6.933a16.874,16.874,0,0,1,2.389,8.118c.475,6.908.29,13.836.271,20.754a13.188,13.188,0,0,0,.893,5.859c1.721,3.534,6.4,3.583,9.766,3.577l33.312-.057a57.048,57.048,0,0,1,12.487,1.449c3.65.75,6.784-1.092,8.535-4.488,1.658-3.215,1.784-6.97,1.962-10.583a228.513,228.513,0,0,1,5.949-41.74C1870.969,993.208,1872.589,988.138,1873.847,982.808Z" transform="translate(-1788.066 -944.388)" fill="#ffc73c"/>
          <g id="Group_45337" data-name="Group 45337" clip-path="url(#clip-path-2)">
            <path id="Path_53957" data-name="Path 53957" d="M1943.5,944.631c2.614-4.4,3.208-9.891-.216-14.127-1.566-1.937-4.334-2.154-6.7-2.2a56.352,56.352,0,0,0-13.871,1.47c-4.325,1.012-8.737,2.726-10.61,7.094a10.925,10.925,0,0,0,.928,9.968,12.279,12.279,0,0,0,7.512,5.427,26,26,0,0,0,15.557-.969A16.255,16.255,0,0,0,1943.5,944.631Z" transform="translate(-1883.439 -931.934)" fill="#efb126"/>
            <path id="Path_53958" data-name="Path 53958" d="M1894.2,1167.3q-.051-10.171-.1-20.342c-.012-2.361,1.521-16.729-2.151-16.566a2.08,2.08,0,0,0-1.081.453c-1.827,1.307-2.766,3.495-3.619,5.573-2.676,6.513-4.923,16.94-10.494,21.5-5.663,4.635-14.371,6.589-21.408,7.7-8.218,1.3-16.571,1.4-24.876,1.9-5.372.327-11.3,1.1-14.827,5.163-2.52,2.9-3.8,7.251-5.149,10.8-1.176,3.1-2.113,6.778.274,9.584a11.133,11.133,0,0,0,3.854,2.653c5.183,2.443,10.848,3.675,16.5,4.621a225.594,225.594,0,0,0,47.953,2.433c3.425-.163,7.138-.5,9.664-2.823,1.88-1.725,2.766-4.264,3.4-6.736C1894.271,1184.8,1894.24,1175.993,1894.2,1167.3Z" transform="translate(-1804.481 -1088.341)" fill="#efb126"/>
          </g>
        </g>
        <path id="Path_53960" data-name="Path 53960" d="M1841.24,773.359c-6.059,6.234-.563,21.466,9.1,19.262,10.382-2.368,8.82-18.549-.568-21.206C1846.11,770.379,1843.191,771.352,1841.24,773.359Z" transform="translate(-1607.539 -626.223)" fill="#57b8e8"/>
        <path id="Path_53961" data-name="Path 53961" d="M1868.467,706.749c6.073.774,12.47.242,17.894-2.6,6.906-3.614,10.361-10.24,10.5-17.863.1-5.522-.966-11.279-4.3-15.682-3.625-4.788-9.7-7.732-11.954-13.3-1.46-3.6-1.11-8.513,1.777-11.3,1.838-1.775,3.275-3.778,3.039-6.44-.347-3.915-3.212-7.678-6.412-9.793-4.692-3.1-10.528-4.236-16.019-4.933-3.718-.472-7.424-1.517-8.574-5.522a29.459,29.459,0,0,1-.614-6.661c-.247-4.735-.594-9.47-1.3-14.162-.815-5.408-4.327-10.639-8.244-14.365q-.844-.8-1.75-1.536c-10.1-8.18-28.789-11.078-39.926-3.5a17.255,17.255,0,0,0-7.3,11.063c-.566,3.022-1.385,3.673-4.338,4.589-5.364,1.665-11.452,2.846-15.712,6.781a14.719,14.719,0,0,0-4.421,12.21c.566,5.708,4.558,8.439,7.415,12.964,2.917,4.618.623,10.43-2.765,14.241-2.61,2.935-6.313,5.079-7.787,8.72-1.357,3.349-.458,7.221,1.18,10.441.663,1.3,1.445,2.551,2.031,3.892a15.082,15.082,0,0,1-.487,12.911" transform="translate(-1552.059 -474.304)" fill="none" stroke="#0b2d4e" stroke-miterlimit="10" stroke-width="4"/>
        <path id="Path_53985" data-name="Path 53985" d="M0,1.752,445.047,0V31.514H0V1.752Z" transform="translate(445.047 308.932) rotate(180)" fill="#fff"/>
        <path id="Path_53962" data-name="Path 53962" d="M2124.494,1034.054q2.786,5.026,5.515,10.083c3.679,6.854,10.509,22.082-.426,25.845-5.509,1.9-8.66.042-12.3-3.972a232.014,232.014,0,0,1-34.833-50.465c-3.465-6.8-12.665-24.51-1.49-28.557a13.571,13.571,0,0,1,10.9.8,21.918,21.918,0,0,1,4.132,3.05c8.065,7.192,13.808,16.471,18.916,25.883C2118.064,1022.534,2121.3,1028.286,2124.494,1034.054Z" transform="translate(-1790.871 -792.776)" fill="#ffc73c"/>
        <path id="Path_53963" data-name="Path 53963" d="M2005.538,1276.48q1.411-.241,2.826-.464,6.882-1.079,13.7-2.562a230.61,230.61,0,0,1,27.209-4.5q1.456-.138,2.915-.248c4.107-.31,8.41-.411,12.169,1.552s6.749,6.609,5.831,11.088a9.748,9.748,0,0,1-5.724,6.708,24.607,24.607,0,0,1-8.5,1.6l-28.057,1.889q-6.946.463-13.89.951c-4.422.307-8.91.932-13.344.927a8.894,8.894,0,0,1-5.545-1.605c-2.191-1.74-3.509-5.443-3.722-8.337-.11-1.5.183-3.327,1.335-4.257a4.63,4.63,0,0,1,2.154-.789C1998.445,1277.768,2001.982,1277.087,2005.538,1276.48Z" transform="translate(-1725.698 -1011.271)" fill="#ffc73c"/>
        <g id="Group_45340" data-name="Group 45340" transform="translate(107.998 208.5)">
          <rect id="Rectangle_19600" data-name="Rectangle 19600" width="45.367" height="8.882" transform="translate(89.765 60.078)" fill="#2f95d2"/>
          <g id="Group_45339" data-name="Group 45339">
            <path id="Path_53964" data-name="Path 53964" d="M1393.526,1113.81l-11.449-58.29a3.283,3.283,0,0,0-3.221-2.65h-76.115a3.255,3.255,0,0,0-2.638,1.354l-.01-.01-3.515,4.156,3.118-.684,11.273,57.39a3.283,3.283,0,0,0,3.221,2.65h76.115A3.283,3.283,0,0,0,1393.526,1113.81Z" transform="translate(-1295.977 -1052.87)" fill="#2f95d2"/>
            <path id="Path_53965" data-name="Path 53965" d="M1308.651,1135.882h76.115a3.282,3.282,0,0,0,3.221-3.916l-11.449-58.29a3.283,3.283,0,0,0-3.221-2.65H1297.2a3.283,3.283,0,0,0-3.221,3.916l11.45,58.29A3.283,3.283,0,0,0,1308.651,1135.882Z" transform="translate(-1293.918 -1066.921)" fill="#0b2d4e"/>
            <path id="Path_53966" data-name="Path 53966" d="M1464.59,1183.7a8.887,8.887,0,0,0,8.391,7.119,5.707,5.707,0,0,0,5.746-7.119,8.988,8.988,0,0,0-8.391-7.12C1466.46,1176.583,1463.888,1179.77,1464.59,1183.7Z" transform="translate(-1425.914 -1148.614)" fill="#2f95d2"/>
          </g>
          <path id="Path_53967" data-name="Path 53967" d="M1293.918,1083.021" transform="translate(-1293.918 -1076.204)" fill="#3f91ac"/>
        </g>
        <path id="Path_53968" data-name="Path 53968" d="M1873.469,1324.417c-2.261.467-4.029,2.453-6.28,3.118a7.725,7.725,0,0,1-4.869-.358c-1.419-.532-2.862-.817-4.319-1.284-1.135-.364-2.668-1.129-3.888-.875-3.2.666-6.385,2.941-9.283,4.418a3.371,3.371,0,0,1-2.084.538c-.718-.137-1.318-1.007-.909-1.614-.833.779-1.938,2.337-3.283,1.733a1.124,1.124,0,0,1-.577-1.5,4.539,4.539,0,0,1-1.586,1.282,1.555,1.555,0,0,1-1.851-.431,1.842,1.842,0,0,1-.246-.925,6.986,6.986,0,0,1,.742-3.216c2.283-4.981,7.443-8.676,11.835-11.644a9.48,9.48,0,0,1,2.465-1.331,8.654,8.654,0,0,1,2.492-.276,49.7,49.7,0,0,1,16.057,2.595,6.95,6.95,0,0,0,3.459-.153,5.394,5.394,0,0,1,2.491-.072,4.3,4.3,0,0,1,2.147,1.738,8.067,8.067,0,0,1,1.66,5.013c-.092,1.336-.193,2.776-1.764,3.057-.637.114-1.293.043-1.936.11A4.79,4.79,0,0,0,1873.469,1324.417Z" transform="translate(-1604.121 -1044.957)" fill="#f8a17a"/>
        <path id="Path_53969" data-name="Path 53969" d="M1944.377,890.505c3.327-1.067,6.068-3.136,7.094-6.424.932-2.984-.537-6.341-.8-9.352a57.041,57.041,0,0,1-.094-8.677,37.574,37.574,0,0,0,.02-8.117c-.233-1.522-1.069-1.261-2.608-1.866a13.423,13.423,0,0,0-4.939-.606c-3.425.008-12.354-.24-14.47,2.765a8.453,8.453,0,0,0-1.095,4.759c-.056,1.983-.406,4.552-.731,7.319-.145,1.232-.055,2.459-.244,3.683a23.134,23.134,0,0,1-1.187,4c-1.723,4.963-.11,9.682,5.257,11.955A21.206,21.206,0,0,0,1944.377,890.505Z" transform="translate(-1674.064 -691.592)" fill="#f8a17a"/>
        <path id="Path_53970" data-name="Path 53970" d="M1953.919,857.936c-.233-1.522-1.069-1.261-2.609-1.866a13.421,13.421,0,0,0-4.939-.606c-3.425.008-12.354-.24-14.47,2.765a8.452,8.452,0,0,0-1.094,4.759c-.056,1.983-.407,4.552-.732,7.319-.145,1.232-.055,2.459-.244,3.683a17.029,17.029,0,0,1-.855,3.055,18.152,18.152,0,0,0,10.534.655,24.034,24.034,0,0,0,14.335-10.469c.018-.393.029-.786.055-1.178A37.582,37.582,0,0,0,1953.919,857.936Z" transform="translate(-1677.402 -691.592)" fill="#e5785c"/>
        <path id="Path_53971" data-name="Path 53971" d="M1905.352,686.988a41.886,41.886,0,0,0-1.835-12.515c-5.077-15.544-24.468-19.384-36.144-8.226-13.021,12.443-8.038,42.193,5.677,52.644a15.386,15.386,0,0,0,13.1,2.581C1899.629,717.858,1905.436,701.275,1905.352,686.988Z" transform="translate(-1623.862 -540.197)" fill="#f8a17a"/>
        <path id="Path_53972" data-name="Path 53972" d="M2034.957,779.066c5.966-3.262,7.8,5,6.776,9.109a13.114,13.114,0,0,1-2.148,4.75c-1.419,1.881-5.478,5-7.817,2.944-1.061-.934-1.17-2.52-1.2-3.934C2030.478,788.145,2030.914,781.277,2034.957,779.066Z" transform="translate(-1756.016 -631.891)" fill="#f8a17a"/>
        <g id="Group_45345" data-name="Group 45345" transform="translate(356.863 200.873)">
          <g id="Group_45342" data-name="Group 45342" transform="translate(5.265)">
            <g id="Group_45341" data-name="Group 45341">
              <path id="Path_53973" data-name="Path 53973" d="M2423.235,1060.921a6.9,6.9,0,0,0,.16-5.211,20.172,20.172,0,0,0-2.4-4.737,21.514,21.514,0,0,1-2.627-5.339,11.486,11.486,0,0,1,.129-6.392c1.25-4.028,3.811-7,5.575-10.034a14.407,14.407,0,0,0,1.893-4.825,8.3,8.3,0,0,0-.629-5.25,7.582,7.582,0,0,1,2.259,5.342,13.6,13.6,0,0,1-1.195,5.876c-1.531,3.658-3.827,6.627-4.719,9.838a8.621,8.621,0,0,0-.271,4.671,25.447,25.447,0,0,0,1.87,4.9,17.027,17.027,0,0,1,1.71,5.648A6.61,6.61,0,0,1,2423.235,1060.921Z" transform="translate(-2417.973 -1019.133)" fill="#fff"/>
            </g>
          </g>
          <g id="Group_45344" data-name="Group 45344" transform="translate(0 44.002)">
            <g id="Group_45343" data-name="Group 45343">
              <path id="Rectangle_19601" data-name="Rectangle 19601" d="M0,0H22.62a0,0,0,0,1,0,0V21.09A11.31,11.31,0,0,1,11.31,32.4h0A11.31,11.31,0,0,1,0,21.09V0A0,0,0,0,1,0,0Z" transform="translate(0 0)" fill="#57b8e8"/>
              <path id="Path_53974" data-name="Path 53974" d="M2468.1,1246.173a9.966,9.966,0,1,0,9.821,9.965A9.894,9.894,0,0,0,2468.1,1246.173Zm0,16.377a6.412,6.412,0,1,1,6.319-6.412A6.365,6.365,0,0,1,2468.1,1262.55Z" transform="translate(-2443.901 -1238.845)" fill="#57b8e8"/>
              <path id="Path_53975" data-name="Path 53975" d="M2405.457,1240.325h0a1.226,1.226,0,0,1-1.223-1.222v-15.768a1.227,1.227,0,0,1,1.223-1.223h0a1.227,1.227,0,0,1,1.223,1.223V1239.1A1.227,1.227,0,0,1,2405.457,1240.325Z" transform="translate(-2402.075 -1220.223)" fill="#fff" opacity="0.2"/>
              <path id="Path_53976" data-name="Path 53976" d="M2452.018,1213.759v26.672a5.729,5.729,0,0,1-5.729,5.728h5.224a5.728,5.728,0,0,0,5.729-5.728v-26.672Z" transform="translate(-2434.622 -1213.759)" fill="#2f95d2"/>
            </g>
          </g>
        </g>
        <g id="Group_45346" data-name="Group 45346" transform="translate(255.101 163.42)">
          <path id="Path_53977" data-name="Path 53977" d="M1948.987,864.437a30.2,30.2,0,0,1-4.409-.325l.264-1.789a27.18,27.18,0,0,0,15.441-2.156,19.9,19.9,0,0,0,3.341-1.92,15.776,15.776,0,0,0,4.328-4.771l1.561.914a17.6,17.6,0,0,1-4.828,5.322,21.693,21.693,0,0,1-3.642,2.1A28.623,28.623,0,0,1,1948.987,864.437Z" transform="translate(-1944.578 -853.475)" fill="#2f95d2"/>
        </g>
        <g id="Group_45347" data-name="Group 45347" transform="translate(248.849 169.523)">
          <path id="Path_53978" data-name="Path 53978" d="M1917.945,881.788c2.181-1.872,7.032-1.712,8.632.232a3.183,3.183,0,0,1-.482,4.487c-1.544,1.441-3.453,1.357-5.379.923C1918.3,886.886,1915.316,884.044,1917.945,881.788Z" transform="translate(-1916.922 -880.469)" fill="#2f95d2"/>
        </g>
        <path id="Path_53979" data-name="Path 53979" d="M1910.7,674.66c-5.346-16.365-25.76-20.408-38.054-8.661a24.215,24.215,0,0,0-5.98,9.638,11.341,11.341,0,0,0,.948,1.275,18.275,18.275,0,0,0,6.357,4.313,91.4,91.4,0,0,0,21.629,6.409c.546.1,1.1.2,1.644.311a18.325,18.325,0,0,1,5.846,1.955c5.036,2.969,2.87,9.5,6.56,12.359a3.526,3.526,0,0,0,1.008.545,55.055,55.055,0,0,0,1.973-14.968A44.086,44.086,0,0,0,1910.7,674.66Z" transform="translate(-1629.178 -539.744)" fill="#e5785c"/>
        <path id="Path_53980" data-name="Path 53980" d="M1905.071,667.845a18.325,18.325,0,0,1,5.459,2.862c4.5,3.734,1.319,9.834,4.5,13.247,2.823,3.024,7.109-.972,8.233-3.765,2.069-5.145,1.947-10.872,1.794-16.416a34.447,34.447,0,0,0-1.084-9.184,22.588,22.588,0,0,0-5.208-8.578,33.4,33.4,0,0,0-26.286-10.249c-7.565.476-20.836,6.834-14.9,16.465a18.267,18.267,0,0,0,5.588,5.271,91.388,91.388,0,0,0,20.33,9.776C1904.021,667.464,1904.547,667.651,1905.071,667.845Z" transform="translate(-1636.478 -521.514)" fill="#0b2d4e"/>
        <path id="Path_53981" data-name="Path 53981" d="M2033.8,770.365c-8.421,2.159-11.675,18.022-2.281,21.18,10.094,3.394,17.2-11.227,10.574-18.39C2039.506,770.362,2036.507,769.67,2033.8,770.365Z" transform="translate(-1752.35 -625.54)" fill="#57b8e8"/>
        <path id="Path_53982" data-name="Path 53982" d="M2051.089,780.028c-5.813.934-9.394,13.283-3.4,16.682,6.437,3.652,12.478-7.345,8.691-13.68C2054.9,780.56,2052.959,779.727,2051.089,780.028Z" transform="translate(-1766.881 -633.167)" fill="#2f95d2"/>
        <g id="Group_45348" data-name="Group 45348" transform="translate(242.363 105.983)">
          <path id="Path_53983" data-name="Path 53983" d="M1931.253,639.371l-2.246-.26c1.523-13.165.875-29.987-10.868-35.36-5.561-2.544-21.487-5.367-28.5,4.091-.843.947-1.407,1.74-1.407,1.74,4.346-13.413,24.842-10.634,30.844-7.888C1932.057,607.633,1932.862,625.461,1931.253,639.371Z" transform="translate(-1888.235 -599.419)" fill="#57b8e8"/>
        </g>
        <g id="Group_45349" data-name="Group 45349" transform="translate(330.842 84.504)">
          <rect id="Rectangle_19602" data-name="Rectangle 19602" width="92.673" height="56.274" rx="28.137" transform="translate(92.673 56.274) rotate(180)" fill="#0098d7"/>
          <path id="Path_53984" data-name="Path 53984" d="M2333.545,730.32V704.46l20.253,11.047Z" transform="translate(-2321.347 -659.233)" fill="#0098d7"/>
          <rect id="Rectangle_19603" data-name="Rectangle 19603" width="45.876" height="4.91" rx="2.455" transform="translate(14.116 25.761)" fill="#e1f4fd"/>
          <rect id="Rectangle_19604" data-name="Rectangle 19604" width="15.036" height="4.91" rx="2.455" transform="translate(63.521 25.761)" fill="#e1f4fd"/>
          <rect id="Rectangle_19605" data-name="Rectangle 19605" width="45.876" height="4.91" rx="2.455" transform="translate(78.557 19.522) rotate(180)" fill="#e1f4fd"/>
          <rect id="Rectangle_19606" data-name="Rectangle 19606" width="15.036" height="4.91" rx="2.455" transform="translate(29.152 19.522) rotate(180)" fill="#e1f4fd"/>
          <rect id="Rectangle_19607" data-name="Rectangle 19607" width="32.221" height="4.91" rx="2.455" transform="translate(14.116 35.954)" fill="#e1f4fd"/>
        </g>
      </g>
    </g>
  </g>
</svg>
